<svg width="200" height="38" viewBox="0 0 200 38" fill="none" xmlns="http://www.w3.org/2000/svg">
<path d="M2.05218 28.31C1.71618 28.31 1.32018 28.058 0.864184 27.554C0.408184 27.026 0.180184 26.534 0.180184 26.078C0.180184 25.622 0.552184 24.062 1.29618 21.398C2.06418 18.734 2.82018 15.53 3.56418 11.786C4.33218 8.018 4.71618 4.574 4.71618 1.454C4.71618 0.734005 4.98018 0.374006 5.50818 0.374006C5.89218 0.374006 6.36018 0.734005 6.91218 1.454C7.46418 2.15 7.74018 2.834 7.74018 3.506C7.74018 6.458 7.09218 10.67 5.79618 16.142C8.65218 12.278 11.2442 10.346 13.5722 10.346C14.7002 10.346 15.6482 10.898 16.4162 12.002C17.2082 13.106 17.6042 14.426 17.6042 15.962C17.6042 17.474 17.1602 19.214 16.2722 21.182C15.4082 23.15 14.2322 24.842 12.7442 26.258C11.2562 27.65 9.69618 28.346 8.06418 28.346C6.43218 28.346 4.82418 27.518 3.24018 25.862L3.20418 25.898C2.67618 27.506 2.29218 28.31 2.05218 28.31ZM7.77618 25.538C9.33618 25.538 10.8602 24.482 12.3482 22.37C13.8602 20.234 14.6162 17.99 14.6162 15.638C14.6162 14.222 14.1842 13.514 13.3202 13.514C11.9282 13.514 10.3682 14.486 8.64018 16.43C6.93618 18.374 5.46018 20.69 4.21218 23.378C5.34018 24.818 6.52818 25.538 7.77618 25.538ZM33.7822 16.43C33.7822 17.702 33.0862 18.746 31.6942 19.562C30.3262 20.354 28.7662 20.75 27.0142 20.75C25.2862 20.75 23.7142 20.558 22.2982 20.174C21.9622 21.23 21.7942 22.178 21.7942 23.018C21.7942 23.834 22.0462 24.47 22.5502 24.926C23.0782 25.382 23.9302 25.61 25.1062 25.61C26.3062 25.61 27.5302 25.406 28.7782 24.998C30.0502 24.566 30.7462 24.35 30.8662 24.35C31.4902 24.35 31.8022 24.59 31.8022 25.07C31.8022 25.718 31.0702 26.426 29.6062 27.194C28.1422 27.938 26.7142 28.31 25.3222 28.31C23.4502 28.31 21.9262 27.758 20.7502 26.654C19.5742 25.526 18.9862 24.11 18.9862 22.406C18.9862 20.702 19.4422 18.926 20.3542 17.078C21.2662 15.206 22.4422 13.634 23.8822 12.362C25.3222 11.09 26.7502 10.454 28.1662 10.454C29.5822 10.454 30.8662 11.126 32.0182 12.47C33.1942 13.814 33.7822 15.134 33.7822 16.43ZM28.3462 13.298C27.4582 13.298 26.5342 13.766 25.5742 14.702C24.6142 15.614 23.7982 16.754 23.1262 18.122C24.0862 18.338 25.1782 18.446 26.4022 18.446C27.6262 18.446 28.6942 18.254 29.6062 17.87C30.5182 17.462 30.9742 16.934 30.9742 16.286C30.9742 15.638 30.6742 14.978 30.0742 14.306C29.4982 13.634 28.9222 13.298 28.3462 13.298ZM45.9213 10.454C46.7373 10.454 47.5053 10.91 48.2253 11.822C48.9453 12.71 49.3053 13.49 49.3053 14.162C49.3053 14.57 49.1133 14.774 48.7293 14.774C48.4653 14.774 48.0573 14.57 47.5053 14.162C46.9533 13.73 46.3893 13.514 45.8133 13.514C45.2373 13.514 44.3253 13.85 43.0773 14.522C41.8533 15.194 41.2413 15.902 41.2413 16.646C41.2413 17.198 42.3453 18.146 44.5533 19.49C45.3933 20.018 46.1493 20.702 46.8213 21.542C47.5173 22.358 47.8653 23.246 47.8653 24.206C47.8653 25.142 47.2053 26.066 45.8853 26.978C44.5893 27.866 43.0653 28.31 41.3133 28.31C39.5853 28.31 38.0493 27.89 36.7053 27.05C35.3853 26.21 34.7253 25.418 34.7253 24.674C34.7253 24.362 34.7973 24.122 34.9413 23.954C35.1093 23.762 35.3133 23.666 35.5533 23.666C35.7933 23.666 36.1293 23.822 36.5613 24.134C37.8573 25.07 39.2013 25.538 40.5933 25.538C42.0093 25.538 43.0293 25.382 43.6533 25.07C44.2773 24.734 44.5893 24.302 44.5893 23.774C44.5893 23.222 44.2413 22.646 43.5453 22.046C42.8493 21.422 42.0813 20.87 41.2413 20.39C40.4253 19.91 39.6693 19.322 38.9733 18.626C38.2773 17.93 37.9293 17.222 37.9293 16.502C37.9293 15.23 38.9253 13.91 40.9173 12.542C42.9333 11.15 44.6013 10.454 45.9213 10.454ZM54.9854 24.71C54.9854 25.166 55.2494 25.394 55.7774 25.394C56.6894 25.394 57.7934 25.142 59.0894 24.638C60.4094 24.11 61.1414 23.846 61.2854 23.846C61.7174 23.846 61.9334 24.074 61.9334 24.53C61.9334 25.226 61.2134 26.03 59.7734 26.942C58.3574 27.854 57.0614 28.31 55.8854 28.31C54.7334 28.31 53.7734 27.998 53.0054 27.374C52.2374 26.726 51.8534 26.066 51.8534 25.394C51.8534 24.722 51.9974 23.87 52.2854 22.838C52.5734 21.782 52.9814 20.402 53.5094 18.698C54.0614 16.97 54.4934 15.542 54.8054 14.414C53.6774 14.678 52.9214 14.81 52.5374 14.81C52.1534 14.81 51.7694 14.618 51.3854 14.234C51.0254 13.826 50.8454 13.442 50.8454 13.082C50.8454 12.506 52.4054 11.954 55.5254 11.426C55.9574 9.43401 56.1734 7.67 56.1734 6.134C56.1734 5.41401 56.4134 5.05401 56.8934 5.05401C57.3014 5.05401 57.8054 5.31801 58.4054 5.846C59.0054 6.35 59.3054 6.92601 59.3054 7.57401C59.3054 8.22201 59.1014 9.36201 58.6934 10.994C60.0614 10.874 61.1534 10.814 61.9694 10.814C63.4094 10.814 64.1294 11.126 64.1294 11.75C64.1294 12.11 63.7334 12.41 62.9414 12.65C62.1734 12.89 60.5414 13.262 58.0454 13.766C57.5414 15.662 56.9054 17.834 56.1374 20.282C55.3694 22.706 54.9854 24.182 54.9854 24.71ZM69.4833 5.342C69.4833 4.862 69.6753 4.406 70.0593 3.974C70.4433 3.542 70.8273 3.326 71.2113 3.326C71.6193 3.326 72.0993 3.818 72.6513 4.802C73.2033 5.76201 73.4793 6.56601 73.4793 7.21401C73.4793 7.45401 73.3713 7.67001 73.1553 7.86201C72.9393 8.054 72.7113 8.15 72.4713 8.15C71.8953 8.15 71.2473 7.802 70.5273 7.106C69.8313 6.41001 69.4833 5.82201 69.4833 5.342ZM69.3033 10.454C69.7593 10.454 70.1913 10.73 70.5993 11.282C71.0073 11.834 71.2113 12.374 71.2113 12.902C71.2113 13.43 70.8633 15.014 70.1673 17.654C69.4713 20.27 68.5953 23.21 67.5393 26.474C67.1313 27.674 66.6153 28.274 65.9913 28.274C65.6553 28.274 65.3673 28.142 65.1273 27.878C64.8873 27.59 64.7673 27.278 64.7673 26.942C64.7673 26.582 64.8513 26.03 65.0193 25.286C65.2113 24.518 65.4753 23.51 65.8113 22.262C66.1713 20.99 66.4473 19.958 66.6393 19.166C66.8553 18.374 67.0713 17.486 67.2873 16.502C67.5033 15.494 67.6713 14.69 67.7913 14.09C67.9353 13.466 68.0913 12.842 68.2593 12.218C68.5953 11.042 68.9433 10.454 69.3033 10.454ZM83.0294 10.454C84.1094 10.454 85.1054 11.006 86.0174 12.11C86.9294 13.19 87.3854 14.174 87.3854 15.062C87.3854 15.926 87.0854 16.814 86.4854 17.726C86.7734 18.086 86.9174 18.398 86.9174 18.662C86.9174 19.334 86.7614 20.486 86.4494 22.118C86.1614 23.75 85.9814 24.818 85.9094 25.322C85.8614 25.826 85.8134 26.234 85.7654 26.546C85.7174 26.834 85.6574 27.122 85.5854 27.41C85.4894 28.01 85.2734 28.31 84.9374 28.31C84.5054 28.31 84.1454 27.938 83.8574 27.194C83.5934 26.426 83.4374 25.442 83.3894 24.242C81.2534 26.954 79.2734 28.31 77.4494 28.31C76.3454 28.31 75.2534 27.842 74.1734 26.906C73.1174 25.946 72.5894 24.962 72.5894 23.954C72.5894 22.514 73.1174 20.738 74.1734 18.626C75.2294 16.49 76.5974 14.594 78.2774 12.938C79.9574 11.282 81.5414 10.454 83.0294 10.454ZM84.6854 16.79C84.6854 14.558 84.2414 13.442 83.3534 13.442C82.4174 13.442 81.3254 14.114 80.0774 15.458C78.8294 16.778 77.7734 18.278 76.9094 19.958C76.0454 21.638 75.6134 22.97 75.6134 23.954C75.6134 24.362 75.7814 24.698 76.1174 24.962C76.4534 25.202 76.8494 25.322 77.3054 25.322C78.4334 25.322 79.7054 24.566 81.1214 23.054C82.5374 21.518 83.5214 19.658 84.0734 17.474C84.1454 17.114 84.3494 16.898 84.6854 16.826V16.79ZM92.4884 14.846L92.3804 12.146C92.3804 11.018 92.6444 10.454 93.1724 10.454C93.6284 10.454 94.0604 10.754 94.4684 11.354C94.9004 11.93 95.1164 12.626 95.1164 13.442C95.1164 14.234 95.0924 14.834 95.0444 15.242C97.1324 12.074 99.1124 10.49 100.984 10.49C102.16 10.49 102.748 10.778 102.748 11.354C102.748 11.642 102.616 11.906 102.352 12.146C102.088 12.386 101.668 12.662 101.092 12.974C99.8204 13.526 98.7404 14.378 97.8524 15.53C96.9884 16.658 96.2804 17.942 95.7284 19.382C95.1764 20.822 94.7324 22.034 94.3964 23.018C94.0844 24.002 93.8444 24.77 93.6764 25.322C93.5084 25.874 93.3164 26.414 93.1004 26.942C92.7164 27.902 92.2724 28.382 91.7684 28.382C91.3604 28.382 91.0244 28.154 90.7604 27.698C90.5204 27.218 90.4004 26.762 90.4004 26.33C90.4004 25.874 90.6044 24.986 91.0124 23.666C91.9964 20.642 92.4884 17.702 92.4884 14.846ZM116.322 10.454C116.706 10.454 117.114 10.742 117.546 11.318C118.002 11.87 118.23 12.494 118.23 13.19C118.23 13.67 117.738 15.302 116.754 18.086C115.77 20.87 115.098 22.766 114.738 23.774C114.402 24.758 113.934 26.078 113.334 27.734C112.758 29.366 112.194 30.962 111.642 32.522C110.442 35.954 108.642 37.67 106.242 37.67C104.874 37.67 103.566 37.25 102.318 36.41C101.07 35.594 100.446 34.742 100.446 33.854C100.446 33.518 100.602 33.146 100.914 32.738C101.202 32.33 101.454 32.126 101.67 32.126C101.886 32.126 102.234 32.39 102.714 32.918C104.106 34.502 105.294 35.294 106.278 35.294C107.022 35.294 107.694 34.634 108.294 33.314C108.894 32.018 109.458 30.542 109.986 28.886C110.538 27.254 110.838 26.354 110.886 26.186C110.958 26.018 111.03 25.802 111.102 25.538C111.198 25.274 111.282 25.034 111.354 24.818C109.65 27.146 107.97 28.31 106.314 28.31C105.306 28.31 104.37 27.842 103.506 26.906C102.666 25.97 102.246 24.866 102.246 23.594C102.246 22.322 102.558 20.606 103.182 18.446C103.806 16.286 104.538 14.414 105.378 12.83C106.218 11.246 106.902 10.454 107.43 10.454C107.862 10.454 108.258 10.658 108.618 11.066C109.002 11.45 109.194 11.846 109.194 12.254C109.194 12.662 108.882 13.514 108.258 14.81C106.314 18.794 105.342 21.89 105.342 24.098C105.342 24.482 105.462 24.806 105.702 25.07C105.942 25.31 106.23 25.43 106.566 25.43C107.43 25.43 108.462 24.662 109.662 23.126C110.862 21.59 111.966 19.766 112.974 17.654C113.814 15.878 114.69 13.61 115.602 10.85C115.698 10.586 115.938 10.454 116.322 10.454ZM134.399 11.894C134.399 11.438 134.927 11.09 135.983 10.85C137.039 10.586 138.479 10.454 140.303 10.454C142.151 10.454 143.663 10.694 144.839 11.174C145.367 11.39 145.847 11.834 146.279 12.506C146.735 13.154 146.963 13.694 146.963 14.126C146.963 15.038 146.399 16.082 145.271 17.258C144.167 18.434 142.955 19.478 141.635 20.39C140.315 21.302 139.091 22.178 137.963 23.018C136.859 23.858 136.307 24.422 136.307 24.71C136.307 25.118 136.619 25.322 137.243 25.322C138.611 25.322 140.291 25.226 142.283 25.034C144.275 24.842 145.463 24.746 145.847 24.746C146.783 24.746 147.251 25.022 147.251 25.574C147.251 26.342 146.051 26.99 143.651 27.518C141.251 28.046 138.935 28.31 136.703 28.31C135.671 28.31 134.723 27.926 133.859 27.158C132.995 26.366 132.563 25.646 132.563 24.998C132.563 24.35 133.163 23.486 134.363 22.406C135.587 21.302 136.919 20.258 138.359 19.274C142.223 16.586 144.155 14.906 144.155 14.234C144.155 13.778 142.931 13.55 140.483 13.55C139.883 13.55 139.139 13.622 138.251 13.766C137.363 13.886 136.715 13.946 136.307 13.946C135.923 13.946 135.503 13.694 135.047 13.19C134.615 12.686 134.399 12.254 134.399 11.894ZM160.298 16.574C160.298 15.758 160.166 14.99 159.902 14.27C159.638 13.526 159.254 12.986 158.75 12.65C157.094 13.106 155.666 14.39 154.466 16.502C153.29 18.59 152.702 20.558 152.702 22.406C152.702 24.254 153.158 25.406 154.07 25.862C155.798 25.526 157.262 24.35 158.462 22.334C159.686 20.294 160.298 18.374 160.298 16.574ZM150.83 16.898C151.67 15.026 152.762 13.49 154.106 12.29C155.474 11.066 156.866 10.454 158.282 10.454C159.722 10.454 160.922 11.066 161.882 12.29C162.842 13.49 163.322 14.966 163.322 16.718C163.322 18.446 162.902 20.222 162.062 22.046C161.222 23.846 160.058 25.346 158.57 26.546C157.106 27.722 155.546 28.31 153.89 28.31C152.666 28.31 151.646 27.746 150.83 26.618C150.014 25.49 149.606 24.062 149.606 22.334C149.606 20.582 150.014 18.77 150.83 16.898ZM169.267 22.046C171.571 18.134 173.443 15.23 174.883 13.334C176.347 11.414 177.535 10.454 178.447 10.454C179.383 10.454 180.259 10.946 181.075 11.93C181.915 12.914 182.335 13.958 182.335 15.062C182.335 16.79 181.939 18.902 181.147 21.398C179.707 26.006 178.411 28.31 177.259 28.31C176.731 28.31 176.467 27.95 176.467 27.23C176.467 26.726 176.719 25.706 177.223 24.17C177.751 22.61 178.231 21.086 178.663 19.598C179.119 18.086 179.347 16.958 179.347 16.214C179.347 15.446 179.227 14.882 178.987 14.522C178.771 14.162 178.543 13.982 178.303 13.982C178.087 13.982 177.859 14.054 177.619 14.198C177.379 14.342 177.103 14.582 176.791 14.918C176.503 15.254 176.227 15.59 175.963 15.926C175.699 16.238 175.363 16.694 174.955 17.294C174.571 17.894 174.247 18.41 173.983 18.842C173.719 19.25 173.335 19.85 172.831 20.642C172.327 21.434 171.943 22.034 171.679 22.442C171.415 22.85 171.067 23.402 170.635 24.098C170.203 24.794 169.855 25.334 169.591 25.718C169.351 26.102 169.075 26.522 168.763 26.978C168.163 27.866 167.683 28.31 167.323 28.31C166.987 28.31 166.591 28.046 166.135 27.518C165.679 26.966 165.451 26.486 165.451 26.078C165.451 25.958 165.535 25.634 165.703 25.106C166.159 23.714 166.663 21.998 167.215 19.958C167.767 17.894 168.067 15.554 168.115 12.938C168.187 11.186 168.439 10.31 168.871 10.31C169.399 10.31 169.927 10.586 170.455 11.138C170.983 11.69 171.247 12.302 171.247 12.974C171.247 13.622 171.043 14.894 170.635 16.79C170.251 18.662 169.795 20.414 169.267 22.046ZM199.298 16.43C199.298 17.702 198.602 18.746 197.21 19.562C195.842 20.354 194.282 20.75 192.53 20.75C190.802 20.75 189.23 20.558 187.814 20.174C187.478 21.23 187.31 22.178 187.31 23.018C187.31 23.834 187.562 24.47 188.066 24.926C188.594 25.382 189.446 25.61 190.622 25.61C191.822 25.61 193.046 25.406 194.294 24.998C195.566 24.566 196.262 24.35 196.382 24.35C197.006 24.35 197.318 24.59 197.318 25.07C197.318 25.718 196.586 26.426 195.122 27.194C193.658 27.938 192.23 28.31 190.838 28.31C188.966 28.31 187.442 27.758 186.266 26.654C185.09 25.526 184.502 24.11 184.502 22.406C184.502 20.702 184.958 18.926 185.87 17.078C186.782 15.206 187.958 13.634 189.398 12.362C190.838 11.09 192.266 10.454 193.682 10.454C195.098 10.454 196.382 11.126 197.534 12.47C198.71 13.814 199.298 15.134 199.298 16.43ZM193.862 13.298C192.974 13.298 192.05 13.766 191.09 14.702C190.13 15.614 189.314 16.754 188.642 18.122C189.602 18.338 190.694 18.446 191.918 18.446C193.142 18.446 194.21 18.254 195.122 17.87C196.034 17.462 196.49 16.934 196.49 16.286C196.49 15.638 196.19 14.978 195.59 14.306C195.014 13.634 194.438 13.298 193.862 13.298Z" fill="black" fill-opacity="0.71"/>
</svg>
